<svg width="15" height="15" viewBox="0 0 15 15" fill="none" xmlns="http://www.w3.org/2000/svg">
<path d="M12.7734 1.75781H10.5762V1.31836C10.5762 0.591416 9.98476 0 9.25781 0H5.74219C5.01524 0 4.42383 0.591416 4.42383 1.31836V1.75781H2.22656C1.49962 1.75781 0.908203 2.34923 0.908203 3.07617C0.908203 3.66 1.28979 4.15608 1.81655 4.32894L2.60039 13.7911C2.65685 14.469 3.23394 15 3.91418 15H11.0858C11.7661 15 12.3432 14.469 12.3997 13.7909L13.1834 4.32891C13.7102 4.15608 14.0918 3.66 14.0918 3.07617C14.0918 2.34923 13.5004 1.75781 12.7734 1.75781ZM5.30273 1.31836C5.30273 1.07604 5.49987 0.878906 5.74219 0.878906H9.25781C9.50013 0.878906 9.69727 1.07604 9.69727 1.31836V1.75781H5.30273V1.31836ZM11.5238 13.7181C11.5049 13.9441 11.3126 14.1211 11.0858 14.1211H3.91418C3.68745 14.1211 3.49509 13.9441 3.47631 13.7183L2.70393 4.39453H12.2961L11.5238 13.7181ZM12.7734 3.51562H2.22656C1.98425 3.51562 1.78711 3.31849 1.78711 3.07617C1.78711 2.83386 1.98425 2.63672 2.22656 2.63672H12.7734C13.0158 2.63672 13.2129 2.83386 13.2129 3.07617C13.2129 3.31849 13.0158 3.51562 12.7734 3.51562Z" fill="black"/>
</svg>
