<svg width="11" height="11" viewBox="0 0 11 11" fill="none" xmlns="http://www.w3.org/2000/svg">
<path d="M10.4499 4.94999H6.05001V0.549965C6.05001 0.246432 5.80358 0 5.49995 0C5.19642 0 4.94999 0.246432 4.94999 0.549965V4.94999H0.549965C0.246432 4.94999 0 5.19642 0 5.49995C0 5.80358 0.246432 6.05001 0.549965 6.05001H4.94999V10.4499C4.94999 10.7536 5.19642 11 5.49995 11C5.80358 11 6.05001 10.7536 6.05001 10.4499V6.05001H10.4499C10.7536 6.05001 11 5.80358 11 5.49995C11 5.19642 10.7536 4.94999 10.4499 4.94999Z" fill="black"/>
</svg>
